<svg width="32" height="36" viewBox="0 0 32 36" fill="none" xmlns="http://www.w3.org/2000/svg">
<path fill-rule="evenodd" clip-rule="evenodd" d="M8.72656 18C8.72656 18.341 8.8798 18.668 9.15256 18.9091C9.42531 19.1503 9.79525 19.2857 10.181 19.2857H27.032L20.7867 24.804C20.5136 25.0454 20.3601 25.3729 20.3601 25.7143C20.3601 26.0557 20.5136 26.3831 20.7867 26.6246C21.0598 26.866 21.4302 27.0016 21.8164 27.0016C22.2026 27.0016 22.573 26.866 22.8461 26.6246L31.5727 18.9103C31.7082 18.7909 31.8156 18.649 31.8889 18.4928C31.9623 18.3366 32 18.1691 32 18C32 17.8309 31.9623 17.6634 31.8889 17.5072C31.8156 17.351 31.7082 17.2091 31.5727 17.0897L22.8461 9.37543C22.573 9.13401 22.2026 8.99837 21.8164 8.99837C21.4302 8.99837 21.0598 9.13401 20.7867 9.37543C20.5136 9.61685 20.3601 9.94429 20.3601 10.2857C20.3601 10.6271 20.5136 10.9546 20.7867 11.196L27.032 16.7143H10.181C9.79525 16.7143 9.42531 16.8497 9.15256 17.0909C8.8798 17.332 8.72656 17.659 8.72656 18ZM1.45443 36C1.06869 36 0.69875 35.8645 0.425992 35.6234C0.153234 35.3823 0 35.0553 0 34.7143V1.28571C0 0.944722 0.153234 0.617695 0.425992 0.376577C0.69875 0.135459 1.06869 0 1.45443 0C1.84017 0 2.2101 0.135459 2.48286 0.376577C2.75562 0.617695 2.90885 0.944722 2.90885 1.28571V34.7143C2.90885 35.0553 2.75562 35.3823 2.48286 35.6234C2.2101 35.8645 1.84017 36 1.45443 36Z" fill="black"/>
</svg>
