<svg width="21" height="21" viewBox="0 0 21 21" fill="none" xmlns="http://www.w3.org/2000/svg">
<path d="M17.8529 0.473327C17.7031 0.323276 17.5251 0.204238 17.3292 0.123021C17.1333 0.0418039 16.9233 0 16.7113 0C16.4992 0 16.2892 0.0418039 16.0933 0.123021C15.8974 0.204238 15.7194 0.323276 15.5696 0.473327L11.3638 4.68059L10.5002 3.81561C10.3746 3.69009 10.2044 3.61958 10.0269 3.61958C9.8494 3.61958 9.67916 3.69009 9.55365 3.81561C9.42814 3.94113 9.35762 4.11137 9.35762 4.28888C9.35762 4.46639 9.42814 4.63663 9.55365 4.76215L11.087 6.29425L1.53243 15.8478C1.47039 15.91 1.42123 15.9838 1.38773 16.065C1.35424 16.1462 1.33709 16.2333 1.33724 16.3211V18.7182L0.195555 19.8586C0.070218 19.9841 -0.000125189 20.1543 1.67257e-07 20.3316C0.000125523 20.509 0.0707092 20.6791 0.196223 20.8044C0.321738 20.9298 0.491901 21.0001 0.66928 21C0.846659 20.9999 1.01672 20.9293 1.14206 20.8038L2.28241 19.6634H4.67942C4.76726 19.6635 4.85427 19.6464 4.93547 19.6129C5.01668 19.5794 5.09048 19.5302 5.15267 19.4682L14.706 9.91327L16.238 11.4467C16.3635 11.5722 16.5338 11.6427 16.7113 11.6427C16.8888 11.6427 17.059 11.5722 17.1845 11.4467C17.31 11.3212 17.3805 11.151 17.3805 10.9734C17.3805 10.7959 17.31 10.6257 17.1845 10.5002L16.3196 9.63653L20.5267 5.4306C20.6767 5.28073 20.7958 5.10276 20.877 4.90685C20.9582 4.71095 21 4.50095 21 4.28888C21 4.0768 20.9582 3.86681 20.877 3.6709C20.7958 3.475 20.6767 3.29702 20.5267 3.14715L17.8529 0.473327ZM2.67411 16.5978L12.0322 7.23945L13.7608 8.96807L4.40269 18.3265H2.67411V16.5978Z" fill="black"/>
</svg>
