<svg width="21" height="24" viewBox="0 0 21 24" fill="none" xmlns="http://www.w3.org/2000/svg">
<path d="M1.61538 1.6C1.18696 1.6 0.776078 1.76857 0.473135 2.06863C0.170192 2.36869 0 2.77565 0 3.2V4.8C0 5.22435 0.170192 5.63131 0.473135 5.93137C0.776078 6.23143 1.18696 6.4 1.61538 6.4H2.42308V20.8C2.42308 21.6487 2.76346 22.4626 3.36935 23.0627C3.97523 23.6629 4.79699 24 5.65385 24H15.3462C16.203 24 17.0248 23.6629 17.6307 23.0627C18.2365 22.4626 18.5769 21.6487 18.5769 20.8V6.4H19.3846C19.813 6.4 20.2239 6.23143 20.5269 5.93137C20.8298 5.63131 21 5.22435 21 4.8V3.2C21 2.77565 20.8298 2.36869 20.5269 2.06863C20.2239 1.76857 19.813 1.6 19.3846 1.6H13.7308C13.7308 1.17565 13.5606 0.768687 13.2576 0.468629C12.9547 0.168571 12.5438 0 12.1154 0L8.88461 0C8.45619 0 8.04531 0.168571 7.74237 0.468629C7.43942 0.768687 7.26923 1.17565 7.26923 1.6H1.61538ZM6.46154 8C6.67575 8 6.88119 8.08429 7.03266 8.23431C7.18413 8.38434 7.26923 8.58783 7.26923 8.8V20C7.26923 20.2122 7.18413 20.4157 7.03266 20.5657C6.88119 20.7157 6.67575 20.8 6.46154 20.8C6.24732 20.8 6.04189 20.7157 5.89041 20.5657C5.73894 20.4157 5.65385 20.2122 5.65385 20V8.8C5.65385 8.58783 5.73894 8.38434 5.89041 8.23431C6.04189 8.08429 6.24732 8 6.46154 8ZM10.5 8C10.7142 8 10.9197 8.08429 11.0711 8.23431C11.2226 8.38434 11.3077 8.58783 11.3077 8.8V20C11.3077 20.2122 11.2226 20.4157 11.0711 20.5657C10.9197 20.7157 10.7142 20.8 10.5 20.8C10.2858 20.8 10.0803 20.7157 9.92887 20.5657C9.7774 20.4157 9.69231 20.2122 9.69231 20V8.8C9.69231 8.58783 9.7774 8.38434 9.92887 8.23431C10.0803 8.08429 10.2858 8 10.5 8ZM15.3462 8.8V20C15.3462 20.2122 15.2611 20.4157 15.1096 20.5657C14.9581 20.7157 14.7527 20.8 14.5385 20.8C14.3242 20.8 14.1188 20.7157 13.9673 20.5657C13.8159 20.4157 13.7308 20.2122 13.7308 20V8.8C13.7308 8.58783 13.8159 8.38434 13.9673 8.23431C14.1188 8.08429 14.3242 8 14.5385 8C14.7527 8 14.9581 8.08429 15.1096 8.23431C15.2611 8.38434 15.3462 8.58783 15.3462 8.8Z" fill="black"/>
</svg>
