<svg width="50" height="40" viewBox="0 0 50 40" fill="none" xmlns="http://www.w3.org/2000/svg">
<path d="M28.0629 1.62103C27.7536 1.1284 27.3076 0.719117 26.77 0.434497C26.2324 0.149877 25.6221 0 25.0009 0C24.3797 0 23.7694 0.149877 23.2318 0.434497C22.6942 0.719117 22.2482 1.1284 21.9389 1.62103L0.514602 34.9519C-0.913271 37.1746 0.798927 40 3.57656 40H46.4221C49.1998 40 50.9151 37.1717 49.4841 34.9519L28.0629 1.62103ZM24.9947 11.4315C26.6662 11.4315 27.9754 12.7513 27.8067 14.274L26.7131 24.293C26.6764 24.6866 26.4794 25.0533 26.1612 25.3204C25.843 25.5876 25.4267 25.7359 24.9947 25.7359C24.5626 25.7359 24.1463 25.5876 23.8281 25.3204C23.5099 25.0533 23.313 24.6866 23.2762 24.293L22.1827 14.274C22.1434 13.9147 22.1869 13.5519 22.3103 13.2089C22.4337 12.8659 22.6343 12.5503 22.8992 12.2826C23.1641 12.0148 23.4875 11.8007 23.8484 11.6541C24.2093 11.5075 24.5997 11.4317 24.9947 11.4315ZM25.0009 28.5726C25.8296 28.5726 26.6243 28.8736 27.2102 29.4093C27.7962 29.9451 28.1254 30.6718 28.1254 31.4294C28.1254 32.1871 27.7962 32.9138 27.2102 33.4495C26.6243 33.9853 25.8296 34.2863 25.0009 34.2863C24.1722 34.2863 23.3775 33.9853 22.7916 33.4495C22.2056 32.9138 21.8765 32.1871 21.8765 31.4294C21.8765 30.6718 22.2056 29.9451 22.7916 29.4093C23.3775 28.8736 24.1722 28.5726 25.0009 28.5726Z" fill="#FDB72F"/>
</svg>
